<svg width="134" height="45" viewBox="0 0 134 45" fill="none" xmlns="http://www.w3.org/2000/svg">
<path d="M56.6036 14.578C58.8769 14.578 60.6222 14.9813 61.8396 15.788C63.0569 16.58 63.6656 17.8853 63.6656 19.704C63.6656 21.5373 63.0496 22.8647 61.8176 23.686C60.5856 24.4927 58.8256 24.896 56.5376 24.896H55.4596V30H52.0276V14.974C52.7756 14.8273 53.5676 14.7247 54.4036 14.666C55.2396 14.6073 55.9729 14.578 56.6036 14.578ZM56.8236 17.504C56.5742 17.504 56.3249 17.5113 56.0756 17.526C55.8409 17.5407 55.6356 17.5553 55.4596 17.57V21.97H56.5376C57.7256 21.97 58.6202 21.8087 59.2216 21.486C59.8229 21.1633 60.1236 20.562 60.1236 19.682C60.1236 19.2567 60.0429 18.9047 59.8816 18.626C59.7349 18.3473 59.5149 18.1273 59.2216 17.966C58.9429 17.79 58.5982 17.6727 58.1876 17.614C57.7769 17.5407 57.3222 17.504 56.8236 17.504ZM100.465 27.382C100.949 27.382 101.345 27.3453 101.653 27.272C101.976 27.184 102.232 27.074 102.423 26.942C102.614 26.7953 102.746 26.6267 102.819 26.436C102.892 26.2453 102.929 26.0327 102.929 25.798C102.929 25.2993 102.694 24.8887 102.225 24.566C101.756 24.2287 100.949 23.8693 99.8049 23.488C99.3062 23.312 98.8075 23.114 98.3089 22.894C97.8102 22.6593 97.3629 22.3733 96.9669 22.036C96.5709 21.684 96.2482 21.266 95.9989 20.782C95.7495 20.2833 95.6249 19.682 95.6249 18.978C95.6249 18.274 95.7569 17.6433 96.0209 17.086C96.2849 16.514 96.6589 16.03 97.1429 15.634C97.6269 15.238 98.2135 14.9373 98.9029 14.732C99.5922 14.512 100.37 14.402 101.235 14.402C102.262 14.402 103.149 14.512 103.897 14.732C104.645 14.952 105.261 15.194 105.745 15.458L104.755 18.164C104.33 17.944 103.853 17.7533 103.325 17.592C102.812 17.416 102.188 17.328 101.455 17.328C100.634 17.328 100.04 17.4453 99.6729 17.68C99.3209 17.9 99.1449 18.2447 99.1449 18.714C99.1449 18.9927 99.2109 19.2273 99.3429 19.418C99.4749 19.6087 99.6582 19.7847 99.8929 19.946C100.142 20.0927 100.421 20.232 100.729 20.364C101.052 20.4813 101.404 20.606 101.785 20.738C102.577 21.0313 103.266 21.3247 103.853 21.618C104.44 21.8967 104.924 22.2267 105.305 22.608C105.701 22.9893 105.994 23.4367 106.185 23.95C106.376 24.4633 106.471 25.0867 106.471 25.82C106.471 27.2427 105.972 28.35 104.975 29.142C103.978 29.9193 102.474 30.308 100.465 30.308C99.7902 30.308 99.1815 30.264 98.6389 30.176C98.0962 30.1027 97.6122 30.0073 97.1869 29.89C96.7762 29.7727 96.4169 29.648 96.1089 29.516C95.8155 29.384 95.5662 29.2593 95.3609 29.142L96.3289 26.414C96.7835 26.6633 97.3409 26.8907 98.0009 27.096C98.6755 27.2867 99.4969 27.382 100.465 27.382Z" fill="#3AAFA9" fill-opacity="0.75"/>
<path d="M73.1378 30.308C70.6591 30.308 68.7671 29.6187 67.4618 28.24C66.1711 26.8613 65.5258 24.9033 65.5258 22.366C65.5258 21.1047 65.7238 19.9827 66.1198 19C66.5158 18.0027 67.0584 17.1667 67.7478 16.492C68.4371 15.8027 69.2584 15.282 70.2118 14.93C71.1651 14.578 72.1991 14.402 73.3138 14.402C73.9591 14.402 74.5458 14.4533 75.0738 14.556C75.6018 14.644 76.0638 14.754 76.4598 14.886C76.8558 15.0033 77.1858 15.128 77.4498 15.26C77.7138 15.392 77.9044 15.4947 78.0218 15.568L77.0318 18.34C76.5624 18.0907 76.0124 17.878 75.3818 17.702C74.7658 17.526 74.0618 17.438 73.2698 17.438C72.7418 17.438 72.2211 17.526 71.7078 17.702C71.2091 17.878 70.7618 18.164 70.3658 18.56C69.9844 18.9413 69.6764 19.44 69.4418 20.056C69.2071 20.672 69.0898 21.42 69.0898 22.3C69.0898 23.004 69.1631 23.664 69.3098 24.28C69.4711 24.8813 69.7204 25.402 70.0578 25.842C70.4098 26.282 70.8644 26.634 71.4218 26.898C71.9791 27.1473 72.6538 27.272 73.4458 27.272C73.9444 27.272 74.3918 27.2427 74.7878 27.184C75.1838 27.1253 75.5358 27.0593 75.8438 26.986C76.1518 26.898 76.4231 26.8027 76.6578 26.7C76.8924 26.5973 77.1051 26.502 77.2958 26.414L78.2418 29.164C77.7578 29.4573 77.0758 29.7213 76.1958 29.956C75.3158 30.1907 74.2964 30.308 73.1378 30.308ZM111.994 22.366C111.994 23.114 112.082 23.7887 112.258 24.39C112.448 24.9913 112.712 25.512 113.05 25.952C113.402 26.3773 113.827 26.7073 114.326 26.942C114.824 27.1767 115.396 27.294 116.042 27.294C116.672 27.294 117.237 27.1767 117.736 26.942C118.249 26.7073 118.674 26.3773 119.012 25.952C119.364 25.512 119.628 24.9913 119.804 24.39C119.994 23.7887 120.09 23.114 120.09 22.366C120.09 21.618 119.994 20.9433 119.804 20.342C119.628 19.726 119.364 19.2053 119.012 18.78C118.674 18.34 118.249 18.0027 117.736 17.768C117.237 17.5333 116.672 17.416 116.042 17.416C115.396 17.416 114.824 17.5407 114.326 17.79C113.827 18.0247 113.402 18.362 113.05 18.802C112.712 19.2273 112.448 19.748 112.258 20.364C112.082 20.9653 111.994 21.6327 111.994 22.366ZM123.632 22.366C123.632 23.6713 123.434 24.8227 123.038 25.82C122.656 26.8027 122.128 27.6313 121.454 28.306C120.779 28.966 119.972 29.4647 119.034 29.802C118.11 30.1393 117.112 30.308 116.042 30.308C115 30.308 114.018 30.1393 113.094 29.802C112.17 29.4647 111.363 28.966 110.674 28.306C109.984 27.6313 109.442 26.8027 109.046 25.82C108.65 24.8227 108.452 23.6713 108.452 22.366C108.452 21.0607 108.657 19.9167 109.068 18.934C109.478 17.9367 110.028 17.1007 110.718 16.426C111.422 15.7513 112.228 15.2453 113.138 14.908C114.062 14.5707 115.03 14.402 116.042 14.402C117.083 14.402 118.066 14.5707 118.99 14.908C119.914 15.2453 120.72 15.7513 121.41 16.426C122.099 17.1007 122.642 17.9367 123.038 18.934C123.434 19.9167 123.632 21.0607 123.632 22.366Z" fill="#EFEB80"/>
<path d="M90.6594 30C90.4981 29.472 90.3147 28.9293 90.1094 28.372C89.9187 27.8147 89.7281 27.2573 89.5374 26.7H83.5974C83.4067 27.2573 83.2087 27.8147 83.0034 28.372C82.8127 28.9293 82.6367 29.472 82.4754 30H78.9114C79.4834 28.3573 80.0261 26.8393 80.5394 25.446C81.0527 24.0527 81.5514 22.74 82.0354 21.508C82.5341 20.276 83.0181 19.11 83.4874 18.01C83.9714 16.8953 84.4701 15.81 84.9834 14.754H88.2614C88.7601 15.81 89.2514 16.8953 89.7354 18.01C90.2194 19.11 90.7034 20.276 91.1874 21.508C91.6861 22.74 92.1921 24.0527 92.7054 25.446C93.2187 26.8393 93.7614 28.3573 94.3334 30H90.6594ZM86.5454 18.208C86.4721 18.428 86.3621 18.7287 86.2154 19.11C86.0687 19.4913 85.9001 19.9313 85.7094 20.43C85.5187 20.9287 85.3061 21.4787 85.0714 22.08C84.8514 22.6813 84.6241 23.312 84.3894 23.972H88.7234C88.4887 23.312 88.2614 22.6813 88.0414 22.08C87.8214 21.4787 87.6087 20.9287 87.4034 20.43C87.2127 19.9313 87.0441 19.4913 86.8974 19.11C86.7507 18.7287 86.6334 18.428 86.5454 18.208Z" fill="#F79E02" fill-opacity="0.75"/>
<ellipse cx="27.6667" cy="22.1484" rx="13.8333" ry="13.7109" fill="#F79E02" fill-opacity="0.75"/>
<ellipse cx="13.8333" cy="31.2891" rx="13.8333" ry="13.7109" fill="#3AAFA9" fill-opacity="0.75"/>
<ellipse cx="13.8333" cy="13.7109" rx="13.8333" ry="13.7109" fill="#EFEB80"/>
</svg>
