<svg width="242" height="659" viewBox="0 0 242 659" fill="none" xmlns="http://www.w3.org/2000/svg">
<path d="M169.296 304.679C169.296 314.599 167.536 322.215 164.016 327.527C160.56 332.839 154.864 335.495 146.928 335.495C138.928 335.495 133.136 332.807 129.552 327.431C126.032 322.055 124.272 314.375 124.272 304.391V299.687H102V284.711H167.568C168.208 287.975 168.656 291.431 168.912 295.079C169.168 298.727 169.296 301.927 169.296 304.679ZM156.528 305.639C156.528 304.551 156.496 303.463 156.432 302.375C156.368 301.351 156.304 300.455 156.24 299.687H137.04V304.391C137.04 309.575 137.744 313.479 139.152 316.103C140.56 318.727 143.184 320.039 147.024 320.039C148.88 320.039 150.416 319.687 151.632 318.983C152.848 318.343 153.808 317.383 154.512 316.103C155.28 314.887 155.792 313.383 156.048 311.591C156.368 309.799 156.528 307.815 156.528 305.639ZM113.424 496.074C113.424 498.186 113.584 499.914 113.904 501.258C114.288 502.666 114.768 503.786 115.344 504.618C115.984 505.45 116.72 506.026 117.552 506.346C118.384 506.666 119.312 506.826 120.336 506.826C122.512 506.826 124.304 505.802 125.712 503.754C127.184 501.706 128.752 498.186 130.416 493.194C131.184 491.018 132.048 488.842 133.008 486.666C134.032 484.49 135.28 482.538 136.752 480.81C138.288 479.082 140.112 477.674 142.224 476.586C144.4 475.498 147.024 474.954 150.096 474.954C153.168 474.954 155.92 475.53 158.352 476.682C160.848 477.834 162.96 479.466 164.688 481.578C166.416 483.69 167.728 486.25 168.624 489.258C169.584 492.266 170.064 495.658 170.064 499.434C170.064 503.914 169.584 507.786 168.624 511.05C167.664 514.314 166.608 517.002 165.456 519.114L153.648 514.794C154.608 512.938 155.44 510.858 156.144 508.554C156.912 506.314 157.296 503.594 157.296 500.394C157.296 496.81 156.784 494.218 155.76 492.618C154.8 491.082 153.296 490.314 151.248 490.314C150.032 490.314 149.008 490.602 148.176 491.178C147.344 491.754 146.576 492.554 145.872 493.578C145.232 494.666 144.624 495.882 144.048 497.226C143.536 498.634 142.992 500.17 142.416 501.834C141.136 505.29 139.856 508.298 138.576 510.858C137.36 513.418 135.92 515.53 134.256 517.194C132.592 518.922 130.64 520.202 128.4 521.034C126.16 521.866 123.44 522.282 120.24 522.282C114.032 522.282 109.2 520.106 105.744 515.754C102.352 511.402 100.656 504.842 100.656 496.074C100.656 493.13 100.848 490.474 101.232 488.106C101.552 485.738 101.968 483.626 102.48 481.77C102.992 479.978 103.536 478.41 104.112 477.066C104.688 475.786 105.232 474.698 105.744 473.802L117.648 478.026C116.56 480.01 115.568 482.442 114.672 485.322C113.84 488.266 113.424 491.85 113.424 496.074Z" fill="#3AAFA9" fill-opacity="0.75"/>
<path d="M100.656 376.829C100.656 366.013 103.664 357.757 109.68 352.061C115.696 346.429 124.24 343.613 135.312 343.613C140.816 343.613 145.712 344.477 150 346.205C154.352 347.933 158 350.301 160.944 353.309C163.952 356.317 166.224 359.901 167.76 364.061C169.296 368.221 170.064 372.733 170.064 377.597C170.064 380.413 169.84 382.973 169.392 385.277C169.008 387.581 168.528 389.597 167.952 391.325C167.44 393.053 166.896 394.493 166.32 395.645C165.744 396.797 165.296 397.629 164.976 398.141L152.88 393.821C153.968 391.773 154.896 389.373 155.664 386.621C156.432 383.933 156.816 380.861 156.816 377.405C156.816 375.101 156.432 372.829 155.664 370.589C154.896 368.413 153.648 366.461 151.92 364.733C150.256 363.069 148.08 361.725 145.392 360.701C142.704 359.677 139.44 359.165 135.6 359.165C132.528 359.165 129.648 359.485 126.96 360.125C124.336 360.829 122.064 361.917 120.144 363.389C118.224 364.925 116.688 366.909 115.536 369.341C114.448 371.773 113.904 374.717 113.904 378.173C113.904 380.349 114.032 382.301 114.288 384.029C114.544 385.757 114.832 387.293 115.152 388.637C115.536 389.981 115.952 391.165 116.4 392.189C116.848 393.213 117.264 394.141 117.648 394.973L105.648 399.101C104.368 396.989 103.216 394.013 102.192 390.173C101.168 386.333 100.656 381.885 100.656 376.829ZM135.312 546.381C132.048 546.381 129.104 546.765 126.48 547.533C123.856 548.365 121.584 549.517 119.664 550.989C117.808 552.525 116.368 554.381 115.344 556.557C114.32 558.733 113.808 561.229 113.808 564.045C113.808 566.797 114.32 569.261 115.344 571.437C116.368 573.677 117.808 575.533 119.664 577.005C121.584 578.541 123.856 579.693 126.48 580.461C129.104 581.293 132.048 581.709 135.312 581.709C138.576 581.709 141.52 581.293 144.144 580.461C146.832 579.693 149.104 578.541 150.96 577.005C152.88 575.533 154.352 573.677 155.376 571.437C156.4 569.261 156.912 566.797 156.912 564.045C156.912 561.229 156.368 558.733 155.28 556.557C154.256 554.381 152.784 552.525 150.864 550.989C149.008 549.517 146.736 548.365 144.048 547.533C141.424 546.765 138.512 546.381 135.312 546.381ZM135.312 597.165C129.616 597.165 124.592 596.301 120.24 594.573C115.952 592.909 112.336 590.605 109.392 587.661C106.512 584.717 104.336 581.197 102.864 577.101C101.392 573.069 100.656 568.717 100.656 564.045C100.656 559.501 101.392 555.213 102.864 551.181C104.336 547.149 106.512 543.629 109.392 540.621C112.336 537.613 115.952 535.245 120.24 533.517C124.592 531.789 129.616 530.925 135.312 530.925C141.008 530.925 146 531.821 150.288 533.613C154.64 535.405 158.288 537.805 161.232 540.813C164.176 543.885 166.384 547.405 167.856 551.373C169.328 555.405 170.064 559.629 170.064 564.045C170.064 568.589 169.328 572.877 167.856 576.909C166.384 580.941 164.176 584.461 161.232 587.469C158.288 590.477 154.64 592.845 150.288 594.573C146 596.301 141.008 597.165 135.312 597.165Z" fill="#EFEB80"/>
<path d="M102 453.287C104.304 452.583 106.672 451.783 109.104 450.887C111.536 450.055 113.968 449.223 116.4 448.391V422.471C113.968 421.639 111.536 420.775 109.104 419.879C106.672 419.047 104.304 418.279 102 417.575V402.023C109.168 404.519 115.792 406.887 121.872 409.127C127.952 411.367 133.68 413.543 139.056 415.655C144.432 417.831 149.52 419.943 154.32 421.991C159.184 424.103 163.92 426.279 168.528 428.519V442.823C163.92 444.999 159.184 447.143 154.32 449.255C149.52 451.367 144.432 453.479 139.056 455.591C133.68 457.767 127.952 459.975 121.872 462.215C115.792 464.455 109.168 466.823 102 469.319L102 453.287ZM153.456 435.335C152.496 435.015 151.184 434.535 149.52 433.895C147.856 433.255 145.936 432.519 143.76 431.687C141.584 430.855 139.184 429.927 136.56 428.903C133.936 427.943 131.184 426.951 128.304 425.927V444.839C131.184 443.815 133.936 442.823 136.56 441.863C139.184 440.903 141.584 439.975 143.76 439.079C145.936 438.247 147.856 437.511 149.52 436.871C151.184 436.231 152.496 435.719 153.456 435.335Z" fill="#F79E02" fill-opacity="0.75"/>
<ellipse cx="122.785" cy="148.657" rx="74.3283" ry="73.6707" transform="rotate(90 122.785 148.657)" fill="#F79E02" fill-opacity="0.75"/>
<ellipse cx="73.6708" cy="74.3283" rx="74.3283" ry="73.6707" transform="rotate(90 73.6708 74.3283)" fill="#3AAFA9" fill-opacity="0.75"/>
<ellipse cx="168.12" cy="74.3283" rx="74.3283" ry="73.6707" transform="rotate(90 168.12 74.3283)" fill="#EFEB80"/>
</svg>
